<?xml version="1.0" encoding="UTF-8" standalone="no"?>
<!-- Created with Inkscape (http://www.inkscape.org/) -->

<svg
   xmlns:dc="http://purl.org/dc/elements/1.1/"
   xmlns:cc="http://creativecommons.org/ns#"
   xmlns:rdf="http://www.w3.org/1999/02/22-rdf-syntax-ns#"
   xmlns:svg="http://www.w3.org/2000/svg"
   xmlns="http://www.w3.org/2000/svg"
   xmlns:sodipodi="http://sodipodi.sourceforge.net/DTD/sodipodi-0.dtd"
   xmlns:inkscape="http://www.inkscape.org/namespaces/inkscape"
   width="210mm"
   height="297mm"
   id="svg3388"
   version="1.1"
   inkscape:version="0.48.1 r9760"
   sodipodi:docname="logoVariações2.svg">
  <defs
     id="defs3390" />
  <sodipodi:namedview
     id="base"
     pagecolor="#ffffff"
     bordercolor="#666666"
     borderopacity="1.0"
     inkscape:pageopacity="0.0"
     inkscape:pageshadow="2"
     inkscape:zoom="0.68804957"
     inkscape:cx="709.90103"
     inkscape:cy="690.20687"
     inkscape:document-units="px"
     inkscape:current-layer="layer2"
     showgrid="false"
     inkscape:window-width="1280"
     inkscape:window-height="723"
     inkscape:window-x="0"
     inkscape:window-y="24"
     inkscape:window-maximized="1"
     showguides="true"
     inkscape:guide-bbox="true" />
  <metadata
     id="metadata3393">
    <rdf:RDF>
      <cc:Work
         rdf:about="">
        <dc:format>image/svg+xml</dc:format>
        <dc:type
           rdf:resource="http://purl.org/dc/dcmitype/StillImage" />
        <dc:title></dc:title>
      </cc:Work>
    </rdf:RDF>
  </metadata>
  <g
     inkscape:label="Camada 1"
     inkscape:groupmode="layer"
     id="layer1" />
  <g
     inkscape:groupmode="layer"
     id="layer2"
     inkscape:label="desenho">
    <path
       sodipodi:nodetypes="ccsscccscccccsccscccscsssccsccssccsssssssccscccssscscsccccsscccscscsccccc"
       inkscape:connector-curvature="0"
       id="path3062"
       d="m 203.45882,878.61273 c -11.29522,-33.35167 -3.23858,-25.86724 -11.93092,-44.6756 -3.38619,-7.32671 -11.48753,-1.39426 -6.00978,-15.58258 0.36587,-0.94738 -12.48993,-23.26939 -15.63482,-20.88093 l -5.71792,4.34273 0.87907,-7.05486 0.87876,-7.05486 -4.68569,0.83937 c -3.71649,0.66575 -4.53737,0.43622 -3.96907,-1.11021 2.35519,-6.40595 3.64928,-12.42899 3.04425,-14.1694 C 107.61557,638.70051 186.23326,856.19254 142.21551,704.5473 125.42306,627.64665 98.763409,571.68894 98.991034,493.30058 97.835704,485.81897 95.836848,476.31601 94.548938,472.18288 91.70426,463.0545 78.61458,431.63843 81.141004,423.73413 c 2.468234,-7.72205 5.011123,-10.77955 11.562006,-13.90189 4.418953,-2.10607 5.961738,-3.97359 9.28406,-11.23865 5.2843,-11.55595 10.36088,-34.36056 13.71874,-61.62748 1.50624,-12.2315 4.06663,-31.30673 5.68958,-42.38931 1.62317,-11.08257 2.73885,-20.38439 2.47956,-20.67066 -12.18742,4.67251 18.29261,-19.00911 29.40125,-25.8621 21.47016,-16.6874 47.19458,-45.25437 63.91445,-70.97712 12.35172,-19.00247 15.32694,-29.96812 14.59232,-53.78291 -0.53862,-17.47078 -1.48541,-18.76212 -13.03041,-17.77465 -9.02299,0.77171 -21.22741,6.46658 -38.75197,18.0828 -17.90922,11.87124 -24.07075,13.9734 -38.29465,13.06518 -14.94355,-0.95422 -18.52204,-2.77141 -19.04036,-9.66879 -0.65249,-8.68588 -5.26325,-5.40918 -5.29465,3.76272 -0.0315,9.85191 -1.76039,10.6787 -7.40239,3.54436 l -4.94625,-6.25474 -1.32368,3.77594 c -1.6765,4.78146 -9.176467,10.83559 -22.872526,18.46309 -21.7295,12.10144 -29.266146,22.16316 -31.429562,41.95953 -0.652707,5.97225 -1.720476,18.73176 -2.372688,28.35446 -1.25394,18.49732 -2.571217,23.80303 -13.919805,56.06777 -6.627845,18.8426 -7.777758,30.44146 -4.487928,45.26082 3.206694,14.44448 2.035934,29.09707 -4.332388,54.21682 -2.809174,11.08089 -5.1077,21.93221 -5.1077,24.11406 0,5.83085 3.023364,11.91695 11.333383,22.81461 10.824084,14.19468 15.108834,22.21164 15.108834,28.26823 0,3.65665 1.341998,7.30246 4.632147,12.58491 20.3359,32.65078 19.452227,29.4442 20.237785,73.43656 0.346904,19.43065 -0.04059,45.26958 -0.905825,60.22637 -1.178515,20.40368 -1.178246,30.59919 0.0013,46.11376 1.352777,17.78706 1.295126,20.4044 -0.537631,24.45998 -1.359276,3.00778 -1.782052,6.13205 -1.251866,9.25137 0.666602,3.92369 0.218772,5.37864 -2.677319,8.71673 l -3.477582,4.00694 2.2692,5.2789 c 1.513738,3.52147 2.467465,9.82377 2.864755,18.93122 0.535828,12.28431 0.330677,14.04803 -2.049286,17.60135 -2.174471,3.24659 -2.512033,5.18665 -1.898438,10.90704 0.672555,6.26746 0.408703,7.33076 -2.65648,10.71452 l -3.403151,3.7566 3.538349,4.07687 c 3.295516,3.7971 3.582869,5.06093 4.184601,18.41906 l 0.646301,14.3421 5.351254,6.40393 c 3.348074,4.00649 5.351528,7.71633 5.351528,9.90978 2.7e-4,2.52948 0.672825,3.50597 2.415452,3.50597 4.675135,0 6.398727,1.6071 6.398727,5.96638 0,2.52316 1.162546,5.64695 2.833086,7.61256 l 2.833358,3.33358 -3.532934,3.35827 c -2.908783,2.76488 -3.125087,3.35827 -1.224577,3.35827 1.269597,0 3.567672,0.97367 5.106891,2.16372 2.269474,1.75483 2.798355,3.50295 2.798355,9.24997 0,6.44246 0.451104,7.55981 4.967363,12.30214 6.659017,6.99253 16.297637,10.71662 35.942297,13.88708 25.15841,4.06024 2.34558,5.50424 2.39967,12.95291 0.027,2.72659 1.54517,6.52047 4.09217,10.17712 4.73978,6.80487 23.06474,14.6116 24.63175,13.54259 1.35462,-0.92422 12.93314,7.89354 27.19642,35.90378 54.72468,93.00085 24.72864,-26.56508 10.76291,-69.17582 z"
       style="fill:#000000;fill-opacity:1;stroke:#000000;stroke-width:0.66146874;stroke-linecap:round;stroke-linejoin:round;stroke-miterlimit:4;stroke-opacity:1;stroke-dasharray:none" />
    <path
       sodipodi:nodetypes="csscsscssssssssscssssscscccssscsssssssssssssssssccccssssccsssssssscsccccssssssssccssscssssscscssssssssssccc"
       inkscape:connector-curvature="0"
       id="path3064"
       d="m 399.24163,978.87236 c 2.48518,-2.18479 8.64183,-11.0822 13.6813,-19.77192 8.54871,-14.74086 10.49789,-21.16271 21.14505,-25.05976 l 3.65741,-2.52711 -3.40329,-4.84107 c -3.94435,-5.61078 -3.82037,-5.7028 9.66725,-7.17731 l 9.05249,-0.98961 0.8521,-5.60741 c 0.9907,-6.5199 0.42401,-5.88525 8.41722,-9.42777 3.43849,-1.52397 9.41583,-6.02676 13.28299,-10.00611 7.18867,-7.39728 12.76797,-10.07982 21.04929,-10.12058 14.62155,-0.072 38.70092,-7.69096 49.09842,-15.53521 4.26738,-3.21947 5.22027,-4.8871 5.34788,-9.35933 0.11879,-4.16603 1.06322,-6.06971 4.02751,-8.11957 6.18935,-4.28006 10.73063,-15.16448 11.51851,-27.60741 0.76403,-12.06565 55.3582,-11.47017 68.3399,-12.93334 4.14904,-0.46766 8.73183,-1.15495 10.18404,-1.52725 3.23122,-0.82859 3.45523,-5.67591 0.42494,-9.19782 -3.57063,-4.15025 -2.89277,-7.21701 1.5954,-7.21701 2.65842,0 6.05888,-1.94702 10.64377,-6.09424 6.84898,-6.19527 8.07637,-6.47098 16.36268,-3.67553 2.22075,0.74913 2.40196,0.11919 1.49501,-5.19781 -0.78763,-4.61755 -0.40187,-6.98805 1.62902,-10.01052 2.64972,-3.94335 2.64223,-3.9746 -1.73202,-7.30113 l -4.3931,-3.34088 5.1368,-4.6815 5.13672,-4.68153 -6.37732,-7.26698 c -5.32549,-6.06842 -6.72729,-8.97642 -8.49942,-17.63131 -4.53898,-22.16836 -4.56616,-20.07448 0.27343,-21.09297 6.01748,-1.26637 8.32045,-3.15613 7.29803,-5.98817 -1.47025,-4.07229 2.00523,-7.61603 9.8809,-10.07513 4.13555,-1.29124 7.51918,-2.7321 7.51918,-3.20186 0,-0.4698 -2.02948,-1.59322 -4.50991,-2.49642 -12.04641,-4.38662 -21.5751,-21.18165 -17.98839,-31.70582 1.74156,-5.11027 27.55054,-51.11112 21.55387,-59.83632 -10.35832,-15.07122 -35.56405,-25.75892 -35.56534,-55.38948 -9.7e-4,-29.24734 3.04712,-45.46538 12.00388,-63.86442 2.89423,-5.94516 5.60826,-12.80916 6.03123,-15.25331 0.42269,-2.44412 -0.96663,-12.43217 -3.08779,-22.19558 -2.12117,-9.76345 18.87218,-21.13909 18.87218,-25.27922 0,-9.44397 -2.08166,10.77428 -11.14591,9.28563 -21.84299,-3.58747 -20.52307,-11.6124 1.50029,-9.1213 18.4894,2.09133 38.67846,-3.12351 49.73997,-12.84793 7.14791,-6.2839 6.81555,-9.26893 -1.24407,-11.17361 -7.95253,-1.87925 -16.86557,-9.78445 -21.49222,-19.06192 -6.14908,-12.33029 -7.5512,-42.95711 -7.55003,-65.25681 9.7e-4,-23.96023 -7.95508,-25.55025 -3.1264,-33.65852 l 4.76372,-2.54682 -4.67297,-3.03717 c -5.61021,-3.64644 -5.98273,-6.89333 -1.01904,-8.88158 l 3.65374,-1.46352 -5.88279,-10.35517 c -4.41142,-7.76526 -6.60137,-14.01593 -8.75579,-24.99191 -3.74234,-19.06576 -9.20232,-30.25948 -26.9047,-55.15882 -7.97622,-11.21885 -15.78915,-25.58944 -19.83127,-30.21775 l -5.32912,-9.81984 3.29496,-5.03309 c 1.8122,-2.76822 3.29497,-5.36254 3.29497,-5.7651 0,-0.40239 -2.74946,-0.73202 -6.1099,-0.73202 -8.17699,0 -12.56703,-2.25088 -23.31071,-11.951749 C 592.97007,79.561521 534.9232,70.820327 512.9648,64.232813 497.18567,59.499169 481.62581,57.060754 451.95957,54.672685 420.92533,52.1745 413.89499,50.217913 384.42183,35.87637 348.66643,18.47794 330.76453,12.903072 310.64985,12.903072 c -23.53397,0 -64.20284,11.43619 -89.77834,25.245836 -5.72586,3.091663 -12.69105,6.831023 -15.47757,8.309659 -2.7869,1.478641 -14.47003,5.491825 -25.96211,8.91825 -22.56089,6.726545 -35.7237,12.982452 -51.71557,24.578514 -17.97264,13.03298 -29.67638,28.234829 -34.459066,44.758909 -2.819599,9.74207 -2.846438,10.54089 -0.46279,13.73942 219.506636,33.64165 102.259166,-6.8054 83.719436,50.37605 0,1.85712 12.08633,9.34256 19.95856,12.36101 10.94723,4.19745 27.75426,5.78419 52.81207,4.98604 26.41899,-0.84145 30.1953,-1.68678 62.26241,-13.93659 29.36697,-11.2184 41.52534,-14.02902 61.10429,-14.12533 13.83912,-0.0682 17.33184,0.40374 27.62734,3.73386 6.48202,2.09647 16.66606,6.6383 22.63128,10.09293 13.92565,8.0648 39.26906,28.24538 61.77015,49.18671 20.89546,19.44696 30.35703,30.18935 33.80094,38.37631 1.38089,3.28274 3.43175,6.63857 4.5575,7.45742 15.47575,-7.70901 -5.17847,16.17579 -1.80104,25.70196 -2.47346,0 -2.58312,1.57057 -1.5974,22.87999 1.67902,36.29716 9.69084,79.66859 17.36968,94.0301 3.77918,7.0679 13.7608,16.34202 21.2176,19.71358 2.90434,1.31316 6.97803,3.98655 9.05253,5.94077 3.3298,3.13667 3.74206,4.61417 3.51789,12.60533 -0.56834,20.26222 -11.33562,55.34608 -21.54429,70.19966 -7.31302,10.64046 -9.0539,18.31085 -9.10073,40.09679 -0.0858,39.89421 -55.99386,65.38693 -75.90604,105.28158 -13.23672,26.52003 -17.07985,36.62869 -16.04883,42.2139 l 0.8109,4.39338 -6.57341,-0.86663 c -5.67047,-0.74757 -6.80331,-0.48916 -8.24606,1.88073 -1.29621,2.12919 -2.63586,2.57788 -5.95487,1.99428 -3.52662,-0.62003 -4.43707,-0.23314 -5.1585,2.19217 -0.72228,2.42809 -1.57788,2.79021 -4.87389,2.06294 -3.86785,-0.85339 -3.96003,-0.74011 -2.83359,3.48338 2.26034,8.47529 1.72611,10.90793 -2.40589,10.95468 -2.99835,0.0322 -3.87156,0.80679 -4.25792,3.76855 -0.53705,4.11734 -4.05103,6.07973 -6.70646,3.74527 -2.87422,-2.52674 -8.65896,-1.7648 -12.62301,1.87023 -10.17482,9.33033 12.9658,93.66587 -7.20844,126.03156 -18.51324,29.70095 1.36387,95.70859 11.34854,95.70859 0.66441,0 3.24129,-1.7876 5.7266,-3.9725 l 0,0 z"
       style="fill:#000000;fill-opacity:1;stroke:#000000;stroke-width:0.70731312;stroke-linecap:round;stroke-linejoin:round;stroke-miterlimit:4;stroke-opacity:1;stroke-dasharray:none" />
    <path
       sodipodi:nodetypes="ccccsccccccccccccccc"
       inkscape:connector-curvature="0"
       id="path3066"
       d="m 277.68607,445.99607 c -11.05645,10.12123 -29.12765,17.6119 -26.33977,32.92468 -13.76228,3.04301 -23.26204,3.71967 -43.51269,11.74876 -12.07238,-6.58497 -18.46033,-15.30159 -35.50662,-18.33377 -38.69586,-1.65898 -72.764946,3.26448 -106.304472,17.51868 -12.076584,5.13245 -16.660054,6.0596 -31.648623,7.92064 -2.194951,10.97493 -0.126761,18.39699 -2.321576,29.37193 2.238843,8.10676 10.570879,8.89653 17.982337,19.74281 23.860309,43.90766 36.019983,86.15442 89.367614,90.06951 12.58051,3.09254 31.90688,-7.65577 40.74087,-13.95083 21.43375,-21.29 22.19018,-38.07259 31.69345,-65.06849 5.41924,-17.55983 7.33262,-35.11966 3.2925,-52.67949 10.97489,-5.48749 26.92374,-7.42214 35.05638,-9.35678 8.74115,35.943 32.97745,80.7852 63.71777,94.96103 20.14413,12.21336 36.11179,10.7366 58.10366,8.45629 67.34481,-23.33797 60.16617,-100.28174 60.87552,-155.45668 79.10614,-5.91111 168.74881,-14.82012 253.07002,-24.20808 44.18125,0.43985 47.97146,-10.65544 3.29251,-19.75481 -81.21434,-2.19501 -27.13209,6.2684 -274.1969,4.07347 -27.56983,9.58538 -77.94682,16.31773 -137.36198,42.02113 z"
       style="fill:#000000;stroke:#ffffff;stroke-width:3.24699497;stroke-linecap:butt;stroke-linejoin:miter;stroke-miterlimit:4;stroke-opacity:1;stroke-dasharray:none" />
    <path
       sodipodi:nodetypes="ccc"
       inkscape:connector-curvature="0"
       id="path3068"
       d="m 266.62186,510.25668 c 39.47998,118.61306 164.25984,103.7631 150.6384,-18.47446 -3.83982,-102.50675 -167.39305,-52.62102 -150.6384,18.47446 z"
       style="fill:#ffffff;stroke:#000000;stroke-width:1.62349749px;stroke-linecap:butt;stroke-linejoin:miter;stroke-opacity:1" />
    <path
       sodipodi:nodetypes="ccccc"
       inkscape:connector-curvature="0"
       id="path3070"
       d="m 63.289304,507.62883 c 25.335474,-24.4628 76.297476,-32.8342 106.884826,-22.46626 12.48478,8.62162 25.95475,16.7507 27.91255,30.63576 4.15082,14.52359 8.25824,29.04725 4.76558,43.57088 C 162.9086,693.11283 45.600187,595.04544 63.289304,507.62883 z"
       style="fill:#ffffff;stroke:#000000;stroke-width:1.55549324px;stroke-linecap:butt;stroke-linejoin:miter;stroke-opacity:1" />
    <flowRoot
       xml:space="preserve"
       id="flowRoot3128"
       style="fill:black;stroke:none;stroke-opacity:1;stroke-width:1px;stroke-linejoin:miter;stroke-linecap:butt;fill-opacity:1;font-family:Sans;font-style:normal;font-weight:normal;font-size:40px;line-height:125%;letter-spacing:0px;word-spacing:0px"><flowRegion
         id="flowRegion3130"><rect
           id="rect3132"
           width="24.217539"
           height="41.830296"
           x="682.49432"
           y="118.8861" /></flowRegion><flowPara
         id="flowPara3134" /></flowRoot>  </g>
</svg>
